FFmpeg version SVN-r25716, Copyright (c) 2000-2010 the FFmpeg developers  built on Nov 10 2010 12:23:18 with gcc 4.1.2 20080704 (Red Hat 4.1.2-48)  configuration: --enable-libmp3lame --enable-shared --disable-mmx --arch=x86_64  libavutil     50.33. 0 / 50.33. 0  libavcore      0.12. 1 /  0.12. 1  libavcodec    52.94. 4 / 52.94. 4  libavformat   52.84. 0 / 52.84. 0  libavdevice   52. 2. 2 / 52. 2. 2  libavfilter    1.59. 0 /  1.59. 0  libswscale     0.12. 0 /  0.12. 0Seems stream 0 codec frame rate differs from container frame rate: 61440.00 (61440/1) -> 30.00 (30/1)Input #0, mov,mp4,m4a,3gp,3g2,mj2, from '/RAID10/data/converted_video_files/9777.mov':  Metadata:    major_brand     : qt      minor_version   : 537199360    compatible_brands: qt    Duration: 00:00:33.90, start: 0.000000, bitrate: 2403 kb/s    Stream #0.0(eng): Video: h264, yuv420p, 640x480, 2400 kb/s, 30 fps, 30 tbr, 30720 tbn, 61440 tbc[buffer @ 0x1f5ef350] w:640 h:480 pixfmt:yuv420pOutput #0, flv, to '/RAID10/data/converted_video_files/9777.flv':  Metadata:    encoder         : Lavf52.84.0    Stream #0.0(eng): Video: flv, yuv420p, 640x480, q=2-31, 600 kb/s, 1k tbn, 24 tbcStream mapping:  Stream #0.0 -> #0.0Press [q] to stop encodingframe=   83 fps=  0 q=2.0 size=     343kB time=3.46 bitrate= 811.9kbits/s dup=0 drop=20    frame=  155 fps=153 q=3.6 size=     687kB time=6.46 bitrate= 872.0kbits/s dup=0 drop=38    frame=  223 fps=147 q=4.1 size=     956kB time=9.29 bitrate= 842.5kbits/s dup=0 drop=55    frame=  294 fps=146 q=2.0 size=    1212kB time=12.25 bitrate= 810.4kbits/s dup=0 drop=73    frame=  368 fps=146 q=6.0 size=    1449kB time=15.33 bitrate= 774.1kbits/s dup=0 drop=91    frame=  437 fps=144 q=6.3 size=    1654kB time=18.21 bitrate= 744.1kbits/s dup=0 drop=109    frame=  499 fps=142 q=6.6 size=    1834kB time=20.79 bitrate= 722.5kbits/s dup=0 drop=124    frame=  564 fps=140 q=6.6 size=    2016kB time=23.50 bitrate= 702.9kbits/s dup=0 drop=141    frame=  622 fps=137 q=7.3 size=    2197kB time=25.92 bitrate= 694.5kbits/s dup=0 drop=155    frame=  682 fps=135 q=7.6 size=    2378kB time=28.42 bitrate= 685.6kbits/s dup=0 drop=170    frame=  738 fps=133 q=7.7 size=    2559kB time=30.75 bitrate= 681.6kbits/s dup=0 drop=184    frame=  796 fps=132 q=6.9 size=    2733kB time=33.17 bitrate= 674.9kbits/s dup=0 drop=198    frame=  814 fps=131 q=7.7 Lsize=    2778kB time=33.92 bitrate= 671.0kbits/s dup=0 drop=203    video:2765kB audio:0kB global headers:0kB muxing overhead 0.467353%